<svg width="1440" height="1024" viewBox="0 0 1440 1024" fill="none" xmlns="http://www.w3.org/2000/svg">
<g clip-path="url(#clip0_16_372)">
<rect width="1440" height="1024" fill="white"/>
<path d="M1463.91 242C1401.74 209.5 1282.61 102.6 1303.41 -65" stroke="#8ABE56" stroke-width="6"/>
<path d="M-4 281C274.5 281 334 183.5 371 25" stroke="#8ABE56" stroke-width="6"/>
<ellipse cx="868" cy="61.5" rx="169" ry="169.5" fill="#8237B9"/>
<circle cx="469.522" cy="-110.506" r="268.07" fill="#652D90"/>
<circle cx="719.829" cy="-83.1707" r="188.829" fill="#AD65E8"/>
<circle cx="91.8628" cy="-16.8843" r="220.863" fill="#A15AD8"/>
<circle cx="1087" cy="-54" r="266" fill="#A15AD8"/>
<ellipse cx="1375" cy="-165.5" rx="260" ry="260.5" fill="#652D90"/>
<circle cx="267" cy="-23" r="91" fill="#C492EE"/>
<circle cx="39" cy="989" r="99" fill="#6FA53D"/>
<circle cx="716.5" cy="1023.5" r="151.5" fill="#ACD383"/>
<circle cx="440" cy="1088" r="270" fill="#8ABE56"/>
<circle cx="947.5" cy="1055.5" r="119.5" fill="#8ABE56"/>
<circle cx="1381.5" cy="983.5" r="118.5" fill="#ACD383"/>
<circle cx="215.5" cy="1008.5" r="116.5" fill="#6B9537"/>
<circle cx="1175" cy="1042" r="155" fill="#6B9537"/>
</g>
<defs>
<clipPath id="clip0_16_372">
<rect width="1440" height="1024" fill="white"/>
</clipPath>
</defs>
</svg>
