<?xml version="1.0" encoding="UTF-8" standalone="no"?><!-- Generator: Gravit.io --><svg xmlns="http://www.w3.org/2000/svg" xmlns:xlink="http://www.w3.org/1999/xlink" style="isolation:isolate" viewBox="416.279 -120.806 24 24.001" width="24pt" height="24.001pt"><g><path d=" M 433.698 -110.468 C 434.448 -112.498 433.356 -114.042 432.654 -114.587 L 432.371 -114.798 L 430.656 -113.037 C 430.255 -113.172 429.428 -113.394 428.284 -113.394 C 427.139 -113.394 426.313 -113.172 425.911 -113.037 L 424.198 -114.798 L 423.914 -114.587 C 423.212 -114.042 422.12 -112.498 422.87 -110.468 C 422.555 -109.896 421.702 -108.136 421.685 -105.792 L 421.685 -105.647 L 421.762 -105.528 C 421.842 -105.417 423.8 -102.8 428.285 -102.8 C 432.769 -102.8 434.726 -105.417 434.808 -105.528 L 434.885 -105.647 L 434.885 -105.792 C 434.868 -108.136 434.015 -109.896 433.698 -110.468 Z  M 425.879 -107.606 C 425.216 -107.606 424.679 -108.143 424.679 -108.806 C 424.679 -109.468 425.216 -110.006 425.879 -110.006 C 426.542 -110.006 427.079 -109.468 427.079 -108.806 C 427.079 -108.143 426.542 -107.606 425.879 -107.606 Z  M 428.299 -105.226 L 427.121 -106.406 L 429.479 -106.406 L 428.299 -105.226 Z  M 430.679 -107.606 C 430.016 -107.606 429.479 -108.143 429.479 -108.806 C 429.479 -109.468 430.016 -110.006 430.679 -110.006 C 431.342 -110.006 431.879 -109.468 431.879 -108.806 C 431.879 -108.143 431.342 -107.606 430.679 -107.606 Z " fill="rgb(255,255,255)"/><path d=" M 428.279 -118.406 C 433.572 -118.406 437.879 -114.099 437.879 -108.806 C 437.879 -103.512 433.572 -99.206 428.279 -99.206 C 422.986 -99.206 418.679 -103.512 418.679 -108.806 C 418.679 -114.099 422.986 -118.406 428.279 -118.406 Z  M 428.279 -120.806 C 421.651 -120.806 416.279 -115.433 416.279 -108.806 C 416.279 -102.178 421.651 -96.806 428.279 -96.806 C 434.906 -96.806 440.279 -102.178 440.279 -108.806 C 440.279 -115.433 434.906 -120.806 428.279 -120.806 Z " fill="rgb(255,255,255)"/><path d=" M 433.004 -102.647 C 431.833 -102.066 430.292 -101.598 428.3 -101.598 C 426.282 -101.598 424.732 -102.074 423.562 -102.656 C 422.739 -101.821 422.278 -100.696 422.279 -99.525 L 422.279 -98.424 C 425.987 -96.265 430.57 -96.265 434.279 -98.424 L 434.279 -99.525 C 434.279 -100.692 433.821 -101.813 433.004 -102.647 L 433.004 -102.647 Z " fill="rgb(255,255,255)"/></g></svg>