<?xml version="1.0" encoding="UTF-8" standalone="no"?><!-- Generator: Gravit.io --><svg xmlns="http://www.w3.org/2000/svg" xmlns:xlink="http://www.w3.org/1999/xlink" style="isolation:isolate" viewBox="624.522 -166.239 16.478 16.478" width="16.478pt" height="16.478pt"><path d=" M 624.522 -158 C 624.522 -162.547 628.214 -166.239 632.761 -166.239 C 637.308 -166.239 641 -162.547 641 -158 C 641 -153.453 637.308 -149.761 632.761 -149.761 C 628.214 -149.761 624.522 -153.453 624.522 -158 Z  M 632.76 -159.41 L 629.78 -162.39 L 629.07 -163.1 L 627.66 -161.69 L 628.37 -160.98 L 631.35 -158 L 628.37 -155.02 L 627.66 -154.31 L 629.07 -152.9 L 629.78 -153.61 L 632.76 -156.59 L 635.74 -153.61 L 636.45 -152.9 L 637.86 -154.31 L 637.15 -155.02 L 634.17 -158 L 637.15 -160.98 L 637.86 -161.69 L 636.45 -163.1 L 635.74 -162.39 L 632.76 -159.41 Z " fill-rule="evenodd" fill="rgb(210,19,19)"/></svg>