<?xml version="1.0" encoding="UTF-8" standalone="no"?><!-- Generator: Gravit.io --><svg xmlns="http://www.w3.org/2000/svg" xmlns:xlink="http://www.w3.org/1999/xlink" style="isolation:isolate" viewBox="375.899 240.029 32.941 32.941" width="32.941pt" height="32.941pt"><path d=" M 375.899 256.5 C 375.899 247.41 383.279 240.029 392.369 240.029 C 401.46 240.029 408.84 247.41 408.84 256.5 C 408.84 265.59 401.46 272.971 392.369 272.971 C 383.279 272.971 375.899 265.59 375.899 256.5 Z  M 388.49 248.42 C 388.24 248.11 388.13 247.71 388.18 247.31 C 388.23 246.92 388.44 246.56 388.75 246.32 C 389.06 246.07 389.46 245.96 389.86 246.01 C 390.25 246.06 390.61 246.26 390.85 246.58 L 398.57 256.5 L 390.85 266.42 C 390.61 266.73 390.25 266.94 389.86 266.99 C 389.46 267.04 389.06 266.93 388.75 266.68 C 388.44 266.44 388.23 266.08 388.18 265.69 C 388.13 265.29 388.24 264.89 388.49 264.58 L 394.77 256.5 L 388.49 248.42 Z " fill-rule="evenodd" fill="rgb(171,109,208)"/></svg>