<?xml version="1.0" encoding="UTF-8" standalone="no"?><!-- Generator: Gravit.io --><svg xmlns="http://www.w3.org/2000/svg" xmlns:xlink="http://www.w3.org/1999/xlink" style="isolation:isolate" viewBox="-542.941 143.302 32.941 32.941" width="32.941pt" height="32.941pt"><path d=" M -542.941 159.772 C -542.941 150.682 -535.561 143.302 -526.471 143.302 C -517.38 143.302 -510 150.682 -510 159.772 C -510 168.863 -517.38 176.243 -526.471 176.243 C -535.561 176.243 -542.941 168.863 -542.941 159.772 Z  M -530.35 151.692 C -530.6 151.382 -530.71 150.982 -530.66 150.582 C -530.61 150.192 -530.4 149.832 -530.09 149.592 C -529.78 149.342 -529.38 149.232 -528.98 149.282 C -528.59 149.332 -528.23 149.532 -527.99 149.852 L -520.27 159.772 L -527.99 169.692 C -528.23 170.002 -528.59 170.212 -528.98 170.262 C -529.38 170.312 -529.78 170.202 -530.09 169.952 C -530.4 169.712 -530.61 169.352 -530.66 168.962 C -530.71 168.562 -530.6 168.162 -530.35 167.852 L -524.07 159.772 L -530.35 151.692 Z " fill-rule="evenodd" fill="rgb(48,20,64)"/></svg>