<?xml version="1.0" encoding="UTF-8" standalone="no"?><!-- Generator: Gravit.io --><svg xmlns="http://www.w3.org/2000/svg" xmlns:xlink="http://www.w3.org/1999/xlink" style="isolation:isolate" viewBox="-583.941 143.302 32.941 32.941" width="32.941pt" height="32.941pt"><path d=" M -583.941 159.772 C -583.941 150.682 -576.561 143.302 -567.471 143.302 C -558.38 143.302 -551 150.682 -551 159.772 C -551 168.863 -558.38 176.243 -567.471 176.243 C -576.561 176.243 -583.941 168.863 -583.941 159.772 Z  M -571.35 151.692 C -571.6 151.382 -571.71 150.982 -571.66 150.582 C -571.61 150.192 -571.4 149.832 -571.09 149.592 C -570.78 149.342 -570.38 149.232 -569.98 149.282 C -569.59 149.332 -569.23 149.532 -568.99 149.852 L -561.27 159.772 L -568.99 169.692 C -569.23 170.002 -569.59 170.212 -569.98 170.262 C -570.38 170.312 -570.78 170.202 -571.09 169.952 C -571.4 169.712 -571.61 169.352 -571.66 168.962 C -571.71 168.562 -571.6 168.162 -571.35 167.852 L -565.07 159.772 L -571.35 151.692 Z " fill-rule="evenodd" fill="rgb(109,60,138)"/></svg>