<?xml version="1.0" encoding="UTF-8" standalone="no"?><!-- Generator: Gravit.io --><svg xmlns="http://www.w3.org/2000/svg" xmlns:xlink="http://www.w3.org/1999/xlink" style="isolation:isolate" viewBox="244.724 247.572 8.276 8.15" width="8.276pt" height="8.15pt"><path d=" M 245.136 251.841 C 245.729 250.485 248.596 247.634 250.568 247.574 C 253.769 247.477 253.154 251.001 252.379 252.359 C 250.412 255.801 248.468 255.721 247.076 255.721 C 245.684 255.721 243.908 254.654 245.136 251.841 Z  M 246.66 251.479 C 246.556 251.483 245.99 252.398 245.499 252.876 C 246.045 251.861 246.221 251.438 246.219 251.357 C 246.21 251.082 246.195 251.04 246.404 250.678 C 246.609 250.324 247.512 249.624 248.086 249.255 C 248.123 249.231 248.331 249.148 248.474 249.126 C 248.909 249.06 249.937 248.206 250.026 248.221 C 249.25 248.849 248.6 249.333 248.603 249.385 C 248.623 249.73 248.408 250.097 248.215 250.29 C 247.891 250.614 246.962 251.417 246.792 251.454 C 246.747 251.464 246.708 251.477 246.66 251.479 Z " fill-rule="evenodd" fill="rgb(171,109,208)"/></svg>