<?xml version="1.0" encoding="UTF-8" standalone="no"?><!-- Generator: Gravit.io --><svg xmlns="http://www.w3.org/2000/svg" xmlns:xlink="http://www.w3.org/1999/xlink" style="isolation:isolate" viewBox="393.026 -113.781 10.974 10.806" width="10.974pt" height="10.806pt"><path d=" M 393.573 -108.12 C 394.358 -109.918 398.161 -113.7 400.775 -113.779 C 405.019 -113.907 404.205 -109.234 403.176 -107.434 C 400.568 -102.87 397.991 -102.975 396.145 -102.975 C 394.299 -102.975 391.944 -104.39 393.573 -108.12 Z  M 395.593 -108.601 C 395.455 -108.595 394.705 -107.383 394.054 -106.747 C 394.777 -108.094 395.011 -108.655 395.008 -108.763 C 394.997 -109.127 394.977 -109.183 395.254 -109.663 C 395.525 -110.132 396.723 -111.061 397.484 -111.549 C 397.534 -111.581 397.809 -111.692 397.998 -111.721 C 398.575 -111.808 399.938 -112.941 400.056 -112.921 C 399.027 -112.088 398.165 -111.446 398.17 -111.378 C 398.196 -110.92 397.911 -110.433 397.655 -110.177 C 397.225 -109.748 395.993 -108.683 395.769 -108.634 C 395.708 -108.62 395.656 -108.603 395.593 -108.601 Z " fill-rule="evenodd" fill="rgb(255,255,255)"/></svg>