<?xml version="1.0" encoding="UTF-8" standalone="no"?><!-- Generator: Gravit.io --><svg xmlns="http://www.w3.org/2000/svg" xmlns:xlink="http://www.w3.org/1999/xlink" style="isolation:isolate" viewBox="-1550.442 -1471.44 403.497 400.44" width="403.497pt" height="400.44pt"><g><path d=" M -1408.085 -1469.088 C -1404.849 -1470.211 -1401.506 -1471 -1398.109 -1471.44 C -1413.555 -1465.149 -1428.462 -1455.456 -1437.305 -1440.974 C -1444.418 -1429.496 -1444.447 -1415.07 -1440.932 -1402.402 C -1439.94 -1398.576 -1437.872 -1395.146 -1436.738 -1391.349 C -1439.77 -1394.438 -1441.811 -1398.321 -1444.843 -1401.381 C -1454.423 -1411.442 -1466.298 -1419.945 -1480.015 -1422.977 C -1494.752 -1425.811 -1509.971 -1422.41 -1523.547 -1416.572 C -1533.071 -1412.338 -1542.092 -1407.053 -1550.442 -1400.815 C -1548.389 -1403.382 -1546.113 -1405.763 -1543.64 -1407.928 C -1533.101 -1418.173 -1520.951 -1426.618 -1507.676 -1432.925 C -1497.841 -1437.176 -1486.845 -1440.124 -1476.104 -1438.055 C -1471.999 -1437.168 -1468.132 -1435.409 -1464.767 -1432.897 C -1460.697 -1429.116 -1457.58 -1424.425 -1455.67 -1419.208 C -1452.836 -1416.374 -1450.002 -1413.54 -1447.167 -1410.706 L -1446.941 -1410.706 L -1446.941 -1411.046 C -1447.706 -1415.864 -1451.787 -1419.123 -1453.006 -1423.771 C -1454.511 -1428.879 -1454.025 -1434.368 -1451.645 -1439.132 C -1447.914 -1446.058 -1442.469 -1451.913 -1435.831 -1456.136 C -1427.272 -1461.799 -1417.922 -1466.163 -1408.085 -1469.088 Z " fill="rgb(107,149,55)"/><path d=" M -1432.572 -1441.257 C -1425.543 -1454.974 -1411.996 -1464.412 -1397.486 -1468.833 C -1402.02 -1463.873 -1406.413 -1458.347 -1407.66 -1451.573 C -1409.474 -1440.86 -1406.441 -1429.949 -1408.34 -1419.236 C -1409.173 -1412.975 -1412.379 -1407.273 -1417.296 -1403.309 C -1420.004 -1401.161 -1423.363 -1400.002 -1426.819 -1400.021 C -1431.557 -1400.751 -1435.458 -1404.134 -1436.851 -1408.722 C -1439.08 -1419.741 -1437.574 -1431.189 -1432.572 -1441.257 L -1432.572 -1441.257 Z " fill="rgb(107,149,55)"/><path d=" M -1152.931 -1202.229 C -1153.583 -1199.65 -1154.32 -1197.128 -1155.113 -1194.605 C -1168.23 -1153.328 -1195.951 -1118.251 -1233.079 -1095.95 C -1244.275 -1089.254 -1256.187 -1083.836 -1268.591 -1079.796 C -1260.707 -1086.794 -1254.952 -1095.868 -1251.983 -1105.983 C -1249.936 -1113.622 -1249.493 -1121.602 -1250.679 -1129.421 C -1239.497 -1133.847 -1230.119 -1141.888 -1224.039 -1152.264 C -1218.124 -1162.276 -1215.701 -1173.97 -1217.152 -1185.508 C -1218.555 -1196.767 -1223.52 -1207.283 -1231.322 -1215.521 C -1221.936 -1223.662 -1214.76 -1234.045 -1210.463 -1245.704 C -1203.064 -1266.176 -1205.318 -1288.896 -1216.595 -1307.515 C -1227.872 -1326.134 -1246.963 -1338.656 -1268.534 -1341.582 C -1285.351 -1343.732 -1302.392 -1339.943 -1316.714 -1330.869 C -1320.549 -1341.314 -1325.631 -1351.258 -1331.848 -1360.485 C -1339.654 -1372.52 -1350.165 -1382.565 -1362.541 -1389.818 C -1376.142 -1397.418 -1391.91 -1400.204 -1407.292 -1397.725 C -1413.462 -1396.665 -1419.537 -1395.11 -1425.458 -1393.077 C -1348.959 -1446.666 -1243.978 -1431.537 -1185.721 -1358.53 C -1176.327 -1346.837 -1168.487 -1333.976 -1162.397 -1320.269 C -1145.8 -1283.182 -1142.458 -1241.516 -1152.931 -1202.257 L -1152.931 -1202.229 Z " fill="rgb(138,190,86)"/><path d=" M -1152.931 -1202.229 C -1153.583 -1199.65 -1154.32 -1197.128 -1155.113 -1194.605 C -1168.23 -1153.328 -1195.951 -1118.251 -1233.079 -1095.95 C -1244.275 -1089.254 -1256.187 -1083.836 -1268.591 -1079.796 C -1260.707 -1086.794 -1254.952 -1095.868 -1251.983 -1105.983 C -1249.936 -1113.622 -1249.493 -1121.602 -1250.679 -1129.421 C -1239.497 -1133.847 -1230.119 -1141.888 -1224.039 -1152.264 C -1218.124 -1162.276 -1215.701 -1173.97 -1217.152 -1185.508 C -1218.555 -1196.767 -1223.52 -1207.283 -1231.322 -1215.521 C -1221.936 -1223.662 -1214.76 -1234.045 -1210.463 -1245.704 C -1203.064 -1266.176 -1205.318 -1288.896 -1216.595 -1307.515 C -1227.872 -1326.134 -1246.963 -1338.656 -1268.534 -1341.582 C -1285.351 -1343.732 -1302.392 -1339.943 -1316.714 -1330.869 C -1320.549 -1341.314 -1325.631 -1351.258 -1331.848 -1360.485 C -1339.654 -1372.52 -1350.165 -1382.565 -1362.541 -1389.818 C -1376.142 -1397.418 -1391.91 -1400.204 -1407.292 -1397.725 C -1413.462 -1396.665 -1419.537 -1395.11 -1425.458 -1393.077 C -1348.959 -1446.666 -1243.978 -1431.537 -1185.721 -1358.53 C -1176.327 -1346.837 -1168.487 -1333.976 -1162.397 -1320.269 C -1145.8 -1283.182 -1142.458 -1241.516 -1152.931 -1202.257 L -1152.931 -1202.229 Z " fill="rgb(138,190,86)"/><path d=" M -1548.061 -1398.15 C -1535.648 -1410.075 -1519.525 -1417.386 -1502.376 -1418.868 C -1485.07 -1419.758 -1468.138 -1413.627 -1455.415 -1401.863 C -1453.105 -1398.637 -1451.794 -1394.803 -1451.645 -1390.838 C -1451.894 -1385.918 -1454.715 -1381.492 -1459.071 -1379.19 C -1467.044 -1374.613 -1476.679 -1373.955 -1485.201 -1377.405 C -1498.408 -1382.138 -1508.582 -1392.454 -1521.478 -1397.839 C -1529.923 -1401.325 -1539.417 -1400.333 -1548.061 -1398.15 Z " fill="rgb(107,149,55)"/><path d=" M -1422.539 -1378.907 C -1411.142 -1383.721 -1398.634 -1385.28 -1386.404 -1383.413 C -1373.652 -1380.861 -1362.069 -1374.249 -1353.387 -1364.566 C -1341.816 -1351.767 -1333.187 -1336.589 -1328.107 -1320.099 C -1331.819 -1318.881 -1335.589 -1317.804 -1339.443 -1316.84 C -1340.605 -1329.99 -1343.439 -1343.792 -1351.942 -1354.279 C -1358.685 -1362.368 -1368.675 -1367.041 -1379.206 -1367.032 C -1392.526 -1367.429 -1405.449 -1363.036 -1417.268 -1357.226 C -1418.94 -1364.51 -1420.924 -1371.652 -1422.539 -1378.907 Z " fill="rgb(107,149,55)"/><path d=" M -1489.594 -1310.718 C -1478.918 -1338.81 -1461.265 -1363.721 -1438.297 -1383.101 C -1436.993 -1378.028 -1435.831 -1372.927 -1434.414 -1367.882 C -1478.777 -1319.738 -1492.937 -1251.035 -1471.224 -1189.274 C -1449.511 -1127.512 -1395.473 -1082.784 -1330.743 -1072.994 C -1328.075 -1072.856 -1325.463 -1072.182 -1323.062 -1071.01 C -1353.479 -1070.685 -1383.453 -1078.315 -1410.012 -1093.144 C -1430.48 -1104.567 -1448.498 -1119.908 -1463.038 -1138.292 C -1501.554 -1187.117 -1511.634 -1252.567 -1489.594 -1310.718 L -1489.594 -1310.718 Z " fill="rgb(101,45,144)"/><path d=" M -1297.073 -1324.634 C -1274.947 -1332.415 -1250.313 -1326.007 -1234.783 -1308.431 C -1219.252 -1290.855 -1215.926 -1265.619 -1226.372 -1244.619 C -1236.817 -1223.619 -1258.95 -1211.047 -1282.336 -1212.829 C -1287.043 -1224.448 -1295.204 -1234.341 -1305.717 -1241.17 C -1298.864 -1261.714 -1302.302 -1284.301 -1314.957 -1301.876 C -1316.572 -1304.512 -1319.066 -1306.496 -1320.625 -1309.188 C -1314.191 -1316.227 -1306.093 -1321.538 -1297.073 -1324.634 L -1297.073 -1324.634 Z  M -1257.396 -1311.937 C -1257.396 -1309.698 -1257.396 -1307.488 -1257.396 -1305.249 C -1251.157 -1302.001 -1245.88 -1297.174 -1242.092 -1291.248 C -1235.663 -1280.999 -1234.465 -1268.312 -1238.861 -1257.041 C -1242.389 -1248.373 -1248.904 -1241.255 -1257.226 -1236.975 C -1257.226 -1234.765 -1257.226 -1232.526 -1257.226 -1230.315 C -1240.783 -1237.223 -1230.086 -1253.319 -1230.086 -1271.154 C -1230.086 -1288.99 -1240.783 -1305.086 -1257.226 -1311.994 L -1257.396 -1311.937 Z " fill="rgb(101,45,144)"/><path d=" M -1411.911 -1301.848 C -1398.054 -1316.595 -1377.479 -1322.996 -1357.701 -1318.713 C -1337.924 -1314.43 -1321.84 -1300.091 -1315.325 -1280.932 C -1311.561 -1269.632 -1311.324 -1257.454 -1314.645 -1246.016 C -1329.975 -1252.484 -1347.293 -1252.347 -1362.52 -1245.637 C -1377.746 -1238.928 -1389.533 -1226.24 -1395.105 -1210.561 C -1418.892 -1222.166 -1431.741 -1248.46 -1426.28 -1274.357 C -1424.109 -1284.667 -1419.137 -1294.179 -1411.911 -1301.848 Z  M -1385.837 -1304.313 C -1395.612 -1300.656 -1403.802 -1293.699 -1408.992 -1284.645 L -1401.935 -1284.645 C -1393.969 -1295.949 -1380.561 -1302.123 -1366.792 -1300.827 C -1355.666 -1299.64 -1345.584 -1293.737 -1339.103 -1284.616 C -1336.751 -1284.616 -1334.398 -1284.616 -1332.046 -1284.616 C -1336.475 -1292.25 -1343.034 -1298.426 -1350.921 -1302.386 C -1361.802 -1307.793 -1374.427 -1308.49 -1385.837 -1304.313 L -1385.837 -1304.313 Z " fill="rgb(101,45,144)"/><path d=" M -1347.634 -1239.724 C -1321.732 -1244.656 -1296.433 -1228.694 -1289.733 -1203.193 C -1286.755 -1191.548 -1288.01 -1179.223 -1293.276 -1168.418 C -1305.24 -1170.855 -1317.684 -1168.733 -1328.163 -1162.467 C -1336.544 -1157.438 -1343.272 -1150.07 -1347.52 -1141.267 C -1358.133 -1143.329 -1367.812 -1148.72 -1375.153 -1156.657 C -1387.486 -1170.043 -1391.589 -1189.065 -1385.872 -1206.346 C -1380.155 -1223.626 -1365.517 -1236.447 -1347.634 -1239.838 L -1347.634 -1239.724 Z  M -1374.388 -1202.881 C -1377.38 -1194.673 -1377.579 -1185.707 -1374.954 -1177.374 L -1369.286 -1177.374 C -1373.391 -1188.291 -1371.615 -1200.549 -1364.582 -1209.853 C -1362.587 -1212.249 -1360.418 -1214.494 -1358.092 -1216.57 C -1357.879 -1218.699 -1357.879 -1220.845 -1358.092 -1222.975 C -1365.599 -1218.266 -1371.33 -1211.198 -1374.388 -1202.881 Z " fill="rgb(101,45,144)"/><path d=" M -1246.91 -1210.278 C -1237.75 -1203.587 -1231.977 -1193.222 -1231.11 -1181.912 C -1230.244 -1170.602 -1234.37 -1159.479 -1242.404 -1151.47 C -1247.035 -1146.87 -1252.715 -1143.466 -1258.955 -1141.551 C -1264.119 -1152.068 -1272.816 -1160.435 -1283.526 -1165.187 C -1278.244 -1176.827 -1276.709 -1189.82 -1279.133 -1202.371 C -1267.854 -1200.699 -1256.489 -1204.468 -1246.91 -1210.278 Z  M -1243.225 -1186.188 C -1240.567 -1176.77 -1243.388 -1166.655 -1250.537 -1159.973 L -1250.537 -1154.673 C -1247.32 -1157.159 -1244.575 -1160.202 -1242.432 -1163.657 C -1238.405 -1170.428 -1237.214 -1178.515 -1239.116 -1186.16 L -1243.225 -1186.188 Z " fill="rgb(101,45,144)"/><path d=" M -1309.827 -1158.555 C -1292.251 -1161.639 -1274.832 -1152.363 -1267.58 -1136.058 C -1260.328 -1119.753 -1265.105 -1100.605 -1279.166 -1089.618 C -1293.227 -1078.63 -1312.962 -1078.624 -1327.03 -1089.602 C -1339.145 -1099.056 -1344.556 -1114.759 -1340.836 -1129.669 C -1337.116 -1144.579 -1324.963 -1155.9 -1309.827 -1158.555 L -1309.827 -1158.555 Z  M -1320.341 -1143.676 C -1326.808 -1138.848 -1331.074 -1131.633 -1332.188 -1123.639 L -1328.135 -1123.639 C -1327.258 -1128.596 -1325.032 -1133.214 -1321.702 -1136.988 C -1317.447 -1141.668 -1311.634 -1144.64 -1305.349 -1145.349 L -1305.349 -1149.345 C -1310.755 -1148.794 -1315.923 -1146.84 -1320.341 -1143.676 Z " fill="rgb(101,45,144)"/></g></svg>